<svg xmlns="http://www.w3.org/2000/svg" viewBox="0 0 1126.79 79.6"><g id="レイヤー_2" data-name="レイヤー 2"><g id="レイヤー_1-2" data-name="レイヤー 1"><path d="M0,76.6V0H.1L41,58l-6.2-1.4L75.6,0h.2V76.6H61.3V32.7l.9,7.5L37.3,75.6h-.2L11.5,40.2,14,33.3V76.6Z"/><path d="M94.8,3h14.5V76.6H94.8Z"/><path d="M121.3,76.6l26.2-41.2L154.3,50l-15,26.6Zm1-73.6h18.5l48,73.6H170.1Zm33,27L170.5,3h17.6L162.8,42.5Z"/><path d="M254.9,3q11.49,0,18.3,4.65T280,21.5a18.65,18.65,0,0,1-3.35,11.35,20.15,20.15,0,0,1-9.1,6.8A35.93,35.93,0,0,1,254.4,41.9l-2.3-7.8a48.13,48.13,0,0,1,16.15,2.5,26.22,26.22,0,0,1,11.15,7.15,16.31,16.31,0,0,1,4.1,11.15,21.92,21.92,0,0,1-2.15,10.15,18.34,18.34,0,0,1-5.8,6.7,24.92,24.92,0,0,1-8.25,3.7,38.92,38.92,0,0,1-9.5,1.15H233.3V3Zm1.7,30.1q4.29,0,6.35-2.6A9.31,9.31,0,0,0,265,24.6a6.66,6.66,0,0,0-2.55-5.7A11.2,11.2,0,0,0,255.6,17h-7.8V33.1Zm.5,30a18.55,18.55,0,0,0,5.8-.85,8.6,8.6,0,0,0,4.1-2.7,7.13,7.13,0,0,0,1.5-4.65,6.26,6.26,0,0,0-1.8-4.85,10,10,0,0,0-4.65-2.3,26.92,26.92,0,0,0-5.95-.65h-8.3v16Z"/><path d="M298,3h14.5V62.6h34.6v14H298Z"/><path d="M362.09,3h50.2V17h-35.7V32.7h31.6v14h-31.6V62.6h37.1v14h-51.6Z"/><path d="M494.59,79.6l-55.8-50.4,4.3,2.4.3,45h-14.7V.1h.6l54.6,50.2-3.2-1.4L480.39,3H495V79.6Z"/><path d="M514,76.6V3h22q11.1,0,18.9,3.3a33.37,33.37,0,0,1,12.55,8.8,35.16,35.16,0,0,1,6.95,12.3,44.15,44.15,0,0,1,2.2,13.7,35.48,35.48,0,0,1-3,14.75,33.55,33.55,0,0,1-8,11.2,35.24,35.24,0,0,1-11.8,7.1,41.07,41.07,0,0,1-14.2,2.45Zm14.5-14h8.6a32.38,32.38,0,0,0,10-1.45,22,22,0,0,0,7.75-4.25,18.31,18.31,0,0,0,5-7,25.35,25.35,0,0,0,1.75-9.75q0-7.2-2.35-11.75a19.58,19.58,0,0,0-5.8-7,21.15,21.15,0,0,0-7.05-3.45,24.75,24.75,0,0,0-6.1-1h-11.8Z"/><path d="M623.59,76.6V0h.1l40.9,58-6.2-1.4L699.19,0h.2V76.6h-14.5V32.7l.9,7.5-24.9,35.4h-.2l-25.6-35.4,2.5-6.9V76.6Z"/><path d="M713.89,39.9a36.36,36.36,0,0,1,2.9-14.4,39,39,0,0,1,8.05-12A38.27,38.27,0,0,1,736.79,5.2a36.78,36.78,0,0,1,29.1,0,39.29,39.29,0,0,1,12.05,8.25,38.57,38.57,0,0,1,8.2,12.05,35.71,35.71,0,0,1,3,14.4,36.22,36.22,0,0,1-3,14.6,37.36,37.36,0,0,1-8.2,12,38.7,38.7,0,0,1-12.05,8,38,38,0,0,1-29.1,0,37.64,37.64,0,0,1-20-20A36.87,36.87,0,0,1,713.89,39.9Zm15,0a23.59,23.59,0,0,0,6.65,16.65,22.29,22.29,0,0,0,16.35,6.85,21.18,21.18,0,0,0,15.8-6.85,24.28,24.28,0,0,0,6.4-16.65,24.4,24.4,0,0,0-1.75-9.3,24.07,24.07,0,0,0-4.8-7.55A21.58,21.58,0,0,0,760.39,18a22.9,22.9,0,0,0-17.8,0,22.2,22.2,0,0,0-7.2,5.05,23.38,23.38,0,0,0-4.8,7.55A25.16,25.16,0,0,0,728.89,39.9Z"/><path d="M803.59,76.6V3h22q11.1,0,18.9,3.3A33.37,33.37,0,0,1,857,15.1a35.31,35.31,0,0,1,7,12.3,44.15,44.15,0,0,1,2.2,13.7,35.48,35.48,0,0,1-3,14.75,33.69,33.69,0,0,1-8,11.2,35.24,35.24,0,0,1-11.8,7.1,41.11,41.11,0,0,1-14.2,2.45Zm14.5-14h8.6a32.38,32.38,0,0,0,10-1.45,22.13,22.13,0,0,0,7.75-4.25,18.41,18.41,0,0,0,5-7,25.35,25.35,0,0,0,1.75-9.75q0-7.2-2.35-11.75a19.68,19.68,0,0,0-5.8-7,21.15,21.15,0,0,0-7-3.45,24.75,24.75,0,0,0-6.1-1h-11.8Z"/><path d="M880.69,3h50.2V17h-35.7V32.7h31.6v14h-31.6V62.6h37.1v14h-51.6Z"/><path d="M979.79,3h14.5V76.6h-14.5Z"/><path d="M1023.69,32.9l1.1,7.8-.2-.7a18,18,0,0,1,6.5-6.65,19.5,19.5,0,0,1,10.3-2.55,15.13,15.13,0,0,1,10.35,3.65A12.33,12.33,0,0,1,1056,43.9V76.6h-14V49.1a7.56,7.56,0,0,0-1.55-4.65q-1.45-1.76-4.85-1.75a8.25,8.25,0,0,0-5.6,2.1,13.4,13.4,0,0,0-3.7,5.7,24.31,24.31,0,0,0-1.3,8.3V76.6h-14V32.9Z"/><path d="M1107.49,72.7a22.87,22.87,0,0,1-7.25,3.7,27.91,27.91,0,0,1-8.55,1.4,29.11,29.11,0,0,1-13-2.75,20.13,20.13,0,0,1-8.6-7.9,23.94,23.94,0,0,1-3-12.45,22.58,22.58,0,0,1,3.3-12.45,21.77,21.77,0,0,1,8.65-7.85,24.61,24.61,0,0,1,11.25-2.7,29.62,29.62,0,0,1,10.25,1.6,25,25,0,0,1,7.45,4.2l-6.8,9a21,21,0,0,0-3.85-2.25,13.38,13.38,0,0,0-5.75-1.15,9.79,9.79,0,0,0-5.3,1.5,10.73,10.73,0,0,0-3.8,4.1,12.37,12.37,0,0,0-1.4,6,12,12,0,0,0,1.5,5.9,11,11,0,0,0,4.15,4.25,12.17,12.17,0,0,0,6.25,1.55,13.48,13.48,0,0,0,4.25-.65,9.89,9.89,0,0,0,3.35-1.85Z"/><path d="M1114.84,64.2a7.11,7.11,0,0,1,5-2.1,6.91,6.91,0,0,1,4.75,2.1,6.82,6.82,0,0,1,2.25,5.2,6.59,6.59,0,0,1-2.25,5.25,7.18,7.18,0,0,1-4.75,1.95,7.39,7.39,0,0,1-5-1.95,6.59,6.59,0,0,1-2.25-5.25A6.82,6.82,0,0,1,1114.84,64.2Z"/></g></g></svg>