<?xml version="1.0" encoding="utf-8"?>
<!-- Generator: Adobe Illustrator 25.2.3, SVG Export Plug-In . SVG Version: 6.00 Build 0)  -->
<svg version="1.1" id="レイヤー_1" xmlns="http://www.w3.org/2000/svg" xmlns:xlink="http://www.w3.org/1999/xlink" x="0px"
	 y="0px" width="1366px" height="768px" viewBox="0 0 1366 768" enable-background="new 0 0 1366 768" xml:space="preserve">
<g>
	<path fill="#FFFFFF" d="M118.026,231.982v-76.6h0.1l40.9,58l-6.2-1.4l40.8-56.6h0.2v76.6h-14.5v-43.9l0.9,7.5l-24.9,35.4h-0.2
		l-25.6-35.4l2.5-6.9v43.3H118.026z"/>
	<path fill="#FFFFFF" d="M212.826,158.382h14.5v73.6h-14.5V158.382z"/>
	<path fill="#FFFFFF" d="M239.325,231.982l26.2-41.2l6.8,14.6l-15,26.6H239.325z M240.325,158.382h18.5l48,73.6h-18.7
		L240.325,158.382z M273.325,185.382l15.2-27h17.6l-25.3,39.5L273.325,185.382z"/>
	<path fill="#FFFFFF" d="M372.924,158.382c7.666,0,13.766,1.55,18.3,4.65c4.533,3.1,6.8,7.717,6.8,13.85
		c0,4.535-1.117,8.317-3.35,11.35c-2.234,3.034-5.267,5.3-9.1,6.8c-3.834,1.5-8.217,2.25-13.15,2.25l-2.3-7.8
		c6.066,0,11.45,0.834,16.15,2.5c4.7,1.667,8.416,4.05,11.15,7.15c2.733,3.1,4.1,6.817,4.1,11.15c0,4-0.717,7.385-2.15,10.15
		c-1.434,2.767-3.367,5-5.8,6.7c-2.435,1.7-5.185,2.935-8.25,3.7c-3.067,0.767-6.234,1.15-9.5,1.15h-24.5v-73.6H372.924z
		 M374.624,188.482c2.866,0,4.983-0.866,6.35-2.6c1.366-1.733,2.05-3.7,2.05-5.9c0-2.533-0.85-4.433-2.55-5.7
		c-1.7-1.266-3.984-1.9-6.85-1.9h-7.8v16.1H374.624z M375.124,218.482c2.133,0,4.066-0.283,5.8-0.85c1.733-0.565,3.1-1.465,4.1-2.7
		c1-1.233,1.5-2.783,1.5-4.65c0-2.133-0.6-3.75-1.8-4.85c-1.2-1.1-2.75-1.866-4.65-2.3c-1.9-0.433-3.884-0.65-5.95-0.65h-8.3v16
		H375.124z"/>
	<path fill="#FFFFFF" d="M416.022,158.382h14.5v59.6h34.6v14h-49.1V158.382z"/>
	<path fill="#FFFFFF" d="M480.121,158.382h50.2v14h-35.7v15.7h31.6v14h-31.6v15.9h37.1v14h-51.6V158.382z"/>
	<path fill="#FFFFFF" d="M612.62,234.982l-55.801-50.4l4.301,2.4l0.3,45h-14.7v-76.5h0.6l54.601,50.2l-3.2-1.4l-0.3-45.9h14.6v76.6
		H612.62z"/>
	<path fill="#FFFFFF" d="M632.02,231.982v-73.6h22c7.4,0,13.7,1.1,18.9,3.3c5.199,2.2,9.383,5.134,12.55,8.8
		c3.165,3.667,5.482,7.767,6.95,12.3c1.465,4.535,2.199,9.1,2.199,13.7c0,5.467-0.984,10.384-2.949,14.75
		c-1.968,4.367-4.65,8.1-8.051,11.2c-3.399,3.1-7.334,5.467-11.8,7.1c-4.467,1.635-9.2,2.45-14.2,2.45H632.02z M646.52,217.982h8.6
		c3.666,0,7-0.483,10-1.45c3-0.965,5.583-2.383,7.75-4.25c2.166-1.865,3.833-4.215,5-7.05c1.166-2.833,1.75-6.083,1.75-9.75
		c0-4.8-0.784-8.716-2.35-11.75c-1.567-3.033-3.5-5.383-5.8-7.05c-2.3-1.666-4.65-2.816-7.05-3.45c-2.4-0.633-4.435-0.95-6.101-0.95
		h-11.8V217.982z"/>
	<path fill="#FFFFFF" d="M741.619,231.982v-76.6h0.1l40.9,58l-6.2-1.4l40.8-56.6h0.2v76.6h-14.5v-43.9l0.9,7.5l-24.9,35.4h-0.2
		l-25.6-35.4l2.5-6.9v43.3H741.619z"/>
	<path fill="#FFFFFF" d="M831.919,195.282c0-5.065,0.966-9.865,2.9-14.4c1.933-4.533,4.615-8.55,8.05-12.05
		c3.433-3.5,7.415-6.25,11.95-8.25c4.532-2,9.399-3,14.6-3c5.133,0,9.966,1,14.5,3c4.533,2,8.55,4.75,12.05,8.25
		s6.233,7.517,8.2,12.05c1.966,4.535,2.95,9.334,2.95,14.4c0,5.2-0.984,10.067-2.95,14.6c-1.967,4.535-4.7,8.517-8.2,11.95
		c-3.5,3.434-7.517,6.117-12.05,8.05c-4.534,1.935-9.367,2.9-14.5,2.9c-5.2,0-10.067-0.965-14.6-2.9
		c-4.535-1.933-8.518-4.616-11.95-8.05c-3.435-3.433-6.117-7.416-8.05-11.95C832.885,205.35,831.919,200.482,831.919,195.282z
		 M846.919,195.282c0,3.268,0.583,6.317,1.75,9.15c1.166,2.834,2.8,5.334,4.9,7.5c2.1,2.167,4.532,3.85,7.3,5.05
		c2.766,1.2,5.782,1.8,9.05,1.8c3.133,0,6.05-0.6,8.75-1.8s5.05-2.883,7.05-5.05c2-2.166,3.565-4.666,4.7-7.5
		c1.133-2.833,1.7-5.883,1.7-9.15c0-3.333-0.585-6.433-1.75-9.3c-1.167-2.866-2.768-5.383-4.8-7.55
		c-2.035-2.166-4.418-3.85-7.15-5.05c-2.734-1.2-5.7-1.8-8.9-1.8c-3.199,0-6.167,0.6-8.899,1.8c-2.734,1.2-5.135,2.884-7.2,5.05
		c-2.067,2.167-3.667,4.684-4.8,7.55C847.484,188.85,846.919,191.95,846.919,195.282z"/>
	<path fill="#FFFFFF" d="M921.618,231.982v-73.6h22c7.4,0,13.7,1.1,18.9,3.3c5.199,2.2,9.383,5.134,12.55,8.8
		c3.165,3.667,5.482,7.767,6.95,12.3c1.465,4.535,2.199,9.1,2.199,13.7c0,5.467-0.984,10.384-2.949,14.75
		c-1.968,4.367-4.65,8.1-8.051,11.2c-3.399,3.1-7.334,5.467-11.8,7.1c-4.467,1.635-9.2,2.45-14.2,2.45H921.618z M936.118,217.982
		h8.6c3.666,0,7-0.483,10-1.45c3-0.965,5.583-2.383,7.75-4.25c2.166-1.865,3.833-4.215,5-7.05c1.166-2.833,1.75-6.083,1.75-9.75
		c0-4.8-0.784-8.716-2.35-11.75c-1.567-3.033-3.5-5.383-5.8-7.05c-2.3-1.666-4.65-2.816-7.05-3.45c-2.4-0.633-4.435-0.95-6.101-0.95
		h-11.8V217.982z"/>
	<path fill="#FFFFFF" d="M998.718,158.382h50.2v14h-35.7v15.7h31.6v14h-31.6v15.9h37.1v14h-51.6V158.382z"/>
	<path fill="#FFFFFF" d="M1097.816,158.382h14.5v73.6h-14.5V158.382z"/>
	<path fill="#FFFFFF" d="M1141.716,188.282l1.1,7.8l-0.2-0.7c1.533-2.733,3.7-4.95,6.5-6.65s6.233-2.55,10.3-2.55
		c4.133,0,7.583,1.217,10.351,3.65c2.766,2.434,4.183,5.584,4.25,9.45v32.7h-14v-27.5c-0.067-1.933-0.585-3.483-1.55-4.65
		c-0.968-1.166-2.585-1.75-4.851-1.75c-2.134,0-4,0.7-5.6,2.1c-1.601,1.4-2.835,3.3-3.7,5.7c-0.867,2.4-1.3,5.167-1.3,8.3v17.8h-14
		v-43.7H1141.716z"/>
	<path fill="#FFFFFF" d="M1225.515,228.083c-1.935,1.534-4.35,2.767-7.25,3.7c-2.899,0.933-5.75,1.4-8.55,1.4
		c-5,0-9.35-0.917-13.05-2.75c-3.7-1.833-6.567-4.466-8.601-7.9c-2.034-3.433-3.05-7.583-3.05-12.45c0-4.866,1.101-9.016,3.3-12.45
		c2.2-3.433,5.083-6.05,8.65-7.85c3.565-1.8,7.315-2.7,11.25-2.7c3.933,0,7.35,0.534,10.25,1.6c2.9,1.067,5.383,2.467,7.45,4.2
		l-6.8,9c-0.935-0.733-2.218-1.483-3.851-2.25c-1.634-0.766-3.55-1.15-5.75-1.15c-1.935,0-3.7,0.5-5.3,1.5s-2.867,2.367-3.8,4.1
		c-0.935,1.734-1.4,3.734-1.4,6c0,2.134,0.5,4.1,1.5,5.9s2.383,3.217,4.15,4.25c1.766,1.034,3.85,1.55,6.25,1.55
		c1.532,0,2.95-0.215,4.25-0.65c1.3-0.433,2.415-1.05,3.35-1.85L1225.515,228.083z"/>
	<path fill="#FFFFFF" d="M1232.863,219.583c1.5-1.4,3.15-2.1,4.95-2.1c1.665,0,3.25,0.7,4.75,2.1s2.25,3.134,2.25,5.2
		c0,2.2-0.75,3.95-2.25,5.25c-1.5,1.3-3.085,1.95-4.75,1.95c-1.8,0-3.45-0.65-4.95-1.95c-1.5-1.3-2.25-3.05-2.25-5.25
		C1230.613,222.717,1231.363,220.982,1232.863,219.583z"/>
</g>
</svg>
