<svg id="group" data-name="group" xmlns="http://www.w3.org/2000/svg" width="988.946" height="147.769" viewBox="0 0 988.946 147.769">
  <path id="パス_1" data-name="パス 1" d="M65.388.47H5.246C1.33.47,0,1.578,0,5.42V137.378c0,1.773.517,4.064,3.4,4.064H26.968c2.955,0,4.211-1.256,4.211-3.99V96.741c0-4.581,1.995-5.911,6.28-5.911H62.654c23.5,0,51.719-9.531,51.719-45C114.078,11.774,88.661.47,65.388.47Zm-3.99,66.5H37.681c-2.881,0-6.428,0-6.428-5.172V30.467c0-4.433,1.921-6.28,6.65-6.28H60.068c5.246,0,24.012.591,24.012,21.426A20.762,20.762,0,0,1,61.4,66.892Z" transform="translate(0 3.003)" fill="#fff"/>
  <path id="パス_2" data-name="パス 2" d="M89.124,0C65.7,0,18.86,13.964,18.86,75.214s49.429,72.555,70.264,72.555,70.19-11.3,70.19-72.555S112.472,0,89.124,0Zm0,122.353c-21.2,0-39.676-15.442-39.676-48.468S68.658,25.712,88.9,25.712h0c20.244,0,39.454,14.777,39.454,48.173s-18.1,48.468-39.307,48.468Z" transform="translate(120.486 0)" fill="#fff"/>
  <path id="パス_3" data-name="パス 3" d="M111.814,0C88.467,0,41.55,13.964,41.55,75.214s49.429,72.555,70.264,72.555,70.264-11.3,70.264-72.555S135.235,0,111.814,0Zm0,122.353c-21.131,0-39.454-15.442-39.454-48.468s19.284-48.173,39.454-48.173h0c20.318,0,39.528,14.777,39.528,48.173s-18.4,48.468-39.6,48.468Z" transform="translate(265.44 0)" fill="#fff"/>
  <path id="パス_4" data-name="パス 4" d="M162.084,116.025H100.1a3.99,3.99,0,0,1-3.99-3.99V4.459A4.064,4.064,0,0,0,92.042.469H69.285A3.99,3.99,0,0,0,65,4.459V137.451a3.842,3.842,0,0,0,3.99,3.768h93.094a3.916,3.916,0,0,0,4.064-3.768V119.941a3.99,3.99,0,0,0-4.064-3.916Z" transform="translate(415.249 2.929)" fill="#fff"/>
  <path id="パス_5" data-name="パス 5" d="M112.646,5.72H92.55a3.99,3.99,0,0,0-3.99,3.99v94.129a3.99,3.99,0,0,0,3.99,3.916h20.1a3.99,3.99,0,0,0,3.99-3.917V9.71a3.99,3.99,0,0,0-3.99-3.99Z" transform="translate(565.761 36.542)" fill="#fff"/>
  <path id="パス_6" data-name="パス 6" d="M112.646.44H92.55A4.064,4.064,0,0,0,88.56,4.5V19.354a4.064,4.064,0,0,0,3.99,3.99h20.1a4.064,4.064,0,0,0,3.99-3.99V4.578A4.064,4.064,0,0,0,112.646.44Z" transform="translate(565.761 2.811)" fill="#fff"/>
  <path id="パス_7" data-name="パス 7" d="M153.114,16H134.274a4.064,4.064,0,0,0-4.064,3.99V38.165a4.064,4.064,0,0,0,4.064,3.99h18.841a3.99,3.99,0,0,0,3.99-3.99V20.138A3.99,3.99,0,0,0,153.114,16Z" transform="translate(831.839 102.215)" fill="#fff"/>
  <path id="パス_8" data-name="パス 8" d="M160.446,5.535A38.937,38.937,0,0,0,128.6,17.948c-2.069,1.773-4.433.813-4.433-6.206a3.99,3.99,0,0,0-3.99-3.99H101.708a3.99,3.99,0,0,0-4.138,3.99V105.87a4.064,4.064,0,0,0,4.137,3.916H121.73a4.064,4.064,0,0,0,4.064-3.916V54.151c0-11.378,3.029-27.337,21.427-27.337S166.5,40.63,166.5,56.368V106.24a3.99,3.99,0,0,0,3.99,3.768h20.023a4.064,4.064,0,0,0,4.064-3.768V44.325C194.58,17.948,180.838,5.535,160.446,5.535Z" transform="translate(623.321 34.51)" fill="#fff"/>
  <path id="パス_9" data-name="パス 9" d="M210.545,71.517H194c-3.62,0-4.581.591-6.132,4.95A22.165,22.165,0,0,1,165.7,92.426c-16.476,0-23.791-17.067-23.791-33.026s6.65-33.617,24.973-33.617a20.023,20.023,0,0,1,20.1,12.708c.591,2.512,1.4,4.95,6.723,4.95h16.4c4.211,0,5.32-.665,4.211-5.541S206.038,5.39,165.919,5.39c-38.568,0-51.719,33.765-51.719,53.566,0,25.047,14.777,53.788,51.719,53.788s45.217-24.825,48.025-33.1S214.757,71.517,210.545,71.517Z" transform="translate(729.561 34.434)" fill="#fff"/>
</svg>
