<svg version="1.1" id="レイヤー_1" xmlns="http://www.w3.org/2000/svg" x="0" y="0" width="1126.79" height="79.6" xml:space="preserve"><g id="レイヤー_2_1_"><g id="レイヤー_1-2"><path d="M0 76.6V0h.1L41 58l-6.2-1.4L75.6 0h.2v76.6H61.3V32.7l.9 7.5-24.9 35.4h-.2L11.5 40.2l2.5-6.9v43.3H0zM94.8 3h14.5v73.6H94.8V3zm26.5 73.6l26.2-41.2 6.8 14.6-15 26.6h-18zm1-73.6h18.5l48 73.6h-18.7L122.3 3zm33 27l15.2-27h17.6l-25.3 39.5-7.5-12.5zm99.6-27c7.66 0 13.76 1.55 18.3 4.65 4.54 3.1 6.807 7.717 6.8 13.85a18.65 18.65 0 01-3.35 11.35 20.143 20.143 0 01-9.1 6.8 35.947 35.947 0 01-13.15 2.25l-2.3-7.8a48.136 48.136 0 0116.15 2.5 26.224 26.224 0 0111.15 7.15 16.307 16.307 0 014.1 11.15 21.914 21.914 0 01-2.15 10.15 18.345 18.345 0 01-5.8 6.7 24.916 24.916 0 01-8.25 3.7 38.896 38.896 0 01-9.5 1.15h-24.5V3h21.6zm1.7 30.1c2.86 0 4.977-.867 6.35-2.6a9.315 9.315 0 002.05-5.9 6.66 6.66 0 00-2.55-5.7 11.204 11.204 0 00-6.85-1.9h-7.8v16.1h8.8zm.5 30a18.545 18.545 0 005.8-.85 8.604 8.604 0 004.1-2.7 7.132 7.132 0 001.5-4.65 6.262 6.262 0 00-1.8-4.85 10.004 10.004 0 00-4.65-2.3 26.943 26.943 0 00-5.95-.65h-8.3v16h9.3zM298 3h14.5v59.6h34.6v14H298V3zm64.09 0h50.2v14h-35.7v15.7h31.6v14h-31.6v15.9h37.1v14h-51.6V3zm132.5 76.6l-55.8-50.4 4.3 2.4.3 45h-14.7V.1h.6l54.6 50.2-3.2-1.4-.3-45.9H495v76.6h-.41zm19.41-3V3h22c7.4 0 13.7 1.1 18.9 3.3a33.381 33.381 0 0112.55 8.8 35.17 35.17 0 016.95 12.3 44.155 44.155 0 012.2 13.7 35.494 35.494 0 01-3 14.75 33.548 33.548 0 01-8 11.2 35.24 35.24 0 01-11.8 7.1 41.062 41.062 0 01-14.2 2.45H514zm14.5-14h8.6a32.368 32.368 0 0010-1.45 22.01 22.01 0 007.75-4.25 18.309 18.309 0 005-7 25.338 25.338 0 001.75-9.75c0-4.8-.783-8.717-2.35-11.75a19.573 19.573 0 00-5.8-7 21.14 21.14 0 00-7.05-3.45 24.746 24.746 0 00-6.1-1h-11.8V62.6zm95.09 14V0h.1l40.9 58-6.2-1.4L699.19 0h.2v76.6h-14.5V32.7l.9 7.5-24.9 35.4h-.2l-25.6-35.4 2.5-6.9v43.3h-14zm90.3-36.7a36.368 36.368 0 012.9-14.4 38.999 38.999 0 018.05-12 38.282 38.282 0 0111.95-8.3c9.288-4 19.812-4 29.1 0a39.293 39.293 0 0112.05 8.25 38.585 38.585 0 018.2 12.05 35.72 35.72 0 013 14.4 36.226 36.226 0 01-3 14.6 37.352 37.352 0 01-8.2 12 38.704 38.704 0 01-12.05 8 38.002 38.002 0 01-29.1 0 37.64 37.64 0 01-20-20 36.875 36.875 0 01-2.9-14.6zm15 0a23.588 23.588 0 006.65 16.65 22.293 22.293 0 0016.35 6.85 21.182 21.182 0 0015.8-6.85 24.28 24.28 0 006.4-16.65 24.398 24.398 0 00-1.75-9.3 24.063 24.063 0 00-4.8-7.55 21.579 21.579 0 00-7.15-5.05 22.903 22.903 0 00-17.8 0 22.184 22.184 0 00-7.2 5.05 23.38 23.38 0 00-4.8 7.55 25.166 25.166 0 00-1.7 9.3zm74.7 36.7V3h22c7.4 0 13.7 1.1 18.9 3.3A33.368 33.368 0 01857 15.1a35.32 35.32 0 017 12.3 44.155 44.155 0 012.2 13.7 35.494 35.494 0 01-3 14.75 33.683 33.683 0 01-8 11.2 35.24 35.24 0 01-11.8 7.1 41.11 41.11 0 01-14.2 2.45h-25.61zm14.5-14h8.6a32.368 32.368 0 0010-1.45 22.131 22.131 0 007.75-4.25 18.422 18.422 0 005-7 25.338 25.338 0 001.75-9.75c0-4.8-.783-8.717-2.35-11.75a19.689 19.689 0 00-5.8-7 21.158 21.158 0 00-7-3.45 24.746 24.746 0 00-6.1-1h-11.8l-.05 45.65zM880.69 3h50.2v14h-35.7v15.7h31.6v14h-31.6v15.9h37.1v14h-51.6V3zm99.1 0h14.5v73.6h-14.5V3zm43.9 29.9l1.1 7.8-.2-.7a17.997 17.997 0 016.5-6.65 19.503 19.503 0 0110.3-2.55 15.13 15.13 0 0110.35 3.65 12.332 12.332 0 014.26 9.45v32.7h-14V49.1a7.56 7.56 0 00-1.55-4.65c-.967-1.173-2.583-1.757-4.85-1.75a8.248 8.248 0 00-5.6 2.1 13.401 13.401 0 00-3.7 5.7 24.294 24.294 0 00-1.3 8.3v17.8h-14V32.9h12.69zm83.8 39.8a22.876 22.876 0 01-7.25 3.7 27.917 27.917 0 01-8.55 1.4 29.103 29.103 0 01-13-2.75 20.134 20.134 0 01-8.6-7.9 23.944 23.944 0 01-3-12.45 22.585 22.585 0 013.3-12.45 21.765 21.765 0 018.65-7.85 24.61 24.61 0 0111.25-2.7 29.62 29.62 0 0110.25 1.6 25.002 25.002 0 017.45 4.2l-6.8 9a20.95 20.95 0 00-3.85-2.25 13.37 13.37 0 00-5.75-1.15 9.786 9.786 0 00-5.3 1.5 10.73 10.73 0 00-3.8 4.1 12.371 12.371 0 00-1.4 6 11.992 11.992 0 001.5 5.9 10.997 10.997 0 004.15 4.25 12.172 12.172 0 006.25 1.55 13.475 13.475 0 004.25-.65 9.902 9.902 0 003.35-1.85l6.9 8.8zm7.35-8.5a7.11 7.11 0 015-2.1c1.796.056 3.5.809 4.75 2.1a6.816 6.816 0 012.25 5.2 6.589 6.589 0 01-2.25 5.25 7.18 7.18 0 01-4.75 1.95 7.385 7.385 0 01-5-1.95 6.589 6.589 0 01-2.25-5.25 6.816 6.816 0 012.25-5.2z" fill="#fff"/></g></g></svg>