<?xml version="1.0" encoding="utf-8"?>
<!-- Generator: Adobe Illustrator 25.2.3, SVG Export Plug-In . SVG Version: 6.00 Build 0)  -->
<svg version="1.1" id="レイヤー_1" xmlns="http://www.w3.org/2000/svg" xmlns:xlink="http://www.w3.org/1999/xlink" x="0px"
	 y="0px" viewBox="0 0 491.61 34.09" style="enable-background:new 0 0 491.61 34.09;" xml:space="preserve">
<style type="text/css">
	.st0{fill:#3EB489;}
	.st1{fill:#222222;}
</style>
<circle class="st0" cx="185.608" cy="16.8" r="13.318"/>
<polygon class="st0" points="49.222,4 40.667,23.333 60,23.333 "/>
<polygon class="st0" points="117.963,2.519 109.407,21.852 128.741,21.852 "/>
<polygon class="st0" points="271.329,2.519 262.773,21.852 282.107,21.852 "/>
<polygon class="st0" points="397.255,2.519 388.699,21.852 408.033,21.852 "/>
<polygon class="st0" points="473.314,2.519 464.758,21.852 484.092,21.852 "/>
<g id="レイヤー_2_1_">
	<g id="レイヤー_1-2">
		<path class="st1" d="M0,0.57h5.79v13.7h15.73V0.57h5.79v33h-5.79V19.64H5.79v13.89H0V0.57z"/>
		<path class="st1" d="M47.47,0.33h5.37l14.5,33.2h-6.12l-3.34-8H42.29l-3.39,8H33L47.47,0.33z M55.76,20.44l-5.7-13.19l-5.65,13.19
			H55.76z"/>
		<path class="st1" d="M80.81,20.53L67.72,0.57h6.88l9.18,14.55L93.1,0.57h6.64L86.65,20.39v13.14h-5.84V20.53z"/>
		<path class="st1" d="M114.63,0.33H120l14.51,33.2h-6.12l-3.35-8h-15.59l-3.39,8h-5.94L114.63,0.33z M122.91,20.44l-5.69-13.19
			l-5.66,13.19L122.91,20.44z"/>
		<path class="st1" d="M147.31,5.93h-10.45V0.57h26.74v5.36h-10.45v27.6h-5.84V5.93z"/>
		<path class="st1" d="M168.27,17.14v-0.09c0.2-9.519,8.079-17.074,17.598-16.874c9.199,0.193,16.625,7.576,16.872,16.774v0.1
			c-0.203,9.519-8.085,17.071-17.604,16.868C175.938,33.722,168.514,26.337,168.27,17.14z M196.66,17.14v-0.09
			c0-6.41-4.66-11.73-11.2-11.73S174.34,10.55,174.34,17v0.1c0,6.4,4.66,11.67,11.21,11.67S196.66,23.54,196.66,17.14z"/>
		<path class="st1" d="M223.89,0.57h5.79v16.57l15.68-16.57h7.16l-13.75,14.17l14.36,18.79h-7.07l-11.25-14.84L229.68,24v9.56h-5.79
			V0.57z"/>
		<path class="st1" d="M269.75,0.33h5.37l14.51,33.2h-6.13l-3.34-8h-15.59l-3.39,8h-5.93L269.75,0.33z M278,20.44l-5.7-13.19
			l-5.65,13.19H278z"/>
		<path class="st1" d="M295.28,0.57h6.17l10,15.58l10-15.58h6.17v33h-5.79V9.89l-10.35,15.54h-0.19L301,10v23.53h-5.7L295.28,0.57z"
			/>
		<path class="st1" d="M336.49,0.57h5.79v33h-5.79V0.57z"/>
		<path class="st1" d="M360.79,20.53L347.7,0.57h6.87l9.18,14.55l9.33-14.55h6.64l-13.09,19.82v13.14h-5.84V20.53z"/>
		<path class="st1" d="M393.66,0.33H399l14.5,33.2h-6.12l-3.35-8h-15.55l-3.39,8h-5.94L393.66,0.33z M401.94,20.44l-5.69-13.19
			l-5.65,13.19H401.94z"/>
		<path class="st1" d="M419.18,0.57h6.17l10,15.58l10-15.58h6.17v33h-5.79V9.89l-10.35,15.54h-0.19L424.88,10v23.53h-5.7V0.57z"/>
		<path class="st1" d="M471.74,0.33h5.37l14.5,33.2h-6.12l-3.34-8h-15.59l-3.39,8h-5.93L471.74,0.33z M480,20.44l-5.7-13.19
			l-5.65,13.19H480z"/>
	</g>
</g>
</svg>
