<svg xmlns="http://www.w3.org/2000/svg" viewBox="0 0 485.96 34.09"><defs><style>.cls-1{fill:#3eb489;}.cls-2{fill:#d7003a;}</style></defs><g id="レイヤー_2" data-name="レイヤー 2"><g id="レイヤー_1-2" data-name="レイヤー 1"><polygon class="cls-1" points="49.98 4.92 41.83 21.96 58.13 21.96 49.98 4.92"/><polygon class="cls-1" points="113.98 5.87 105.83 22.92 122.13 22.92 113.98 5.87"/><polygon class="cls-1" points="265.48 4.92 256.83 23.92 274.13 23.92 265.48 4.92"/><polygon class="cls-1" points="389.98 5.87 381.83 22.92 398.13 22.92 389.98 5.87"/><polygon class="cls-1" points="468.98 5.87 460.83 22.92 477.13 22.92 468.98 5.87"/><circle class="cls-2" cx="179.13" cy="16.92" r="16"/><path d="M0,.57H5.79v13.7H21.52V.57h5.79v33H21.52V19.64H5.79V33.53H0Z"/><path d="M47.47.33h5.37l14.5,33.2H61.22l-3.34-8H42.29l-3.39,8H33Zm8.29,20.11L50.06,7.25,44.41,20.44Z"/><path d="M78.93,20.53,65.84.57h6.87L81.9,15.12,91.22.57h6.64L84.77,20.39V33.53H78.93Z"/><path d="M110.86.33h5.37l14.5,33.2h-6.12l-3.34-8H105.68l-3.39,8H96.35Zm8.29,20.11-5.7-13.19L107.8,20.44Z"/><path d="M141.66,5.93H131.2V.57H158V5.93H147.5v27.6h-5.84Z"/><path d="M161.67,17.14v-.09a17.24,17.24,0,0,1,34.47-.1v.1a17.24,17.24,0,0,1-34.47.09Zm28.4,0v-.09c0-6.41-4.66-11.73-11.21-11.73S167.75,10.55,167.75,17v.1c0,6.4,4.66,11.67,11.21,11.67S190.07,23.54,190.07,17.14Z"/><path d="M217.29.57h5.79V17.14L238.76.57h7.16L232.17,14.74l14.36,18.79h-7.06L228.22,18.69,223.08,24v9.56h-5.79Z"/><path d="M263.16.33h5.37L283,33.53h-6.12l-3.34-8H258l-3.39,8h-5.93Zm8.29,20.11-5.7-13.19L260.1,20.44Z"/><path d="M288.69.57h6.16l10,15.58,10-15.58h6.16v33h-5.79V9.89l-10.4,15.54h-.19L294.38,10V33.53h-5.69Z"/><path d="M330.84.57h5.79v33h-5.79Z"/><path d="M356.08,20.53,343,.57h6.87L359,15.12,368.37.57H375L361.92,20.39V33.53h-5.84Z"/><path d="M388,.33h5.36l14.51,33.2h-6.12l-3.35-8H382.83l-3.39,8H373.5Zm8.28,20.11L390.6,7.25,385,20.44Z"/><path d="M413.53.57h6.17l10,15.58,10-15.58h6.17v33h-5.79V9.89L429.73,25.43h-.19L419.23,10V33.53h-5.7Z"/><path d="M466.09.33h5.37L486,33.53h-6.12l-3.35-8H460.91l-3.39,8h-5.93Zm8.29,20.11-5.7-13.19L463,20.44Z"/></g></g></svg>