<svg xmlns="http://www.w3.org/2000/svg" viewBox="0 0 485.96 34.09"><defs><style>.cls-1{fill:#3eb489}</style></defs><g id="レイヤー_2" data-name="レイヤー 2"><g id="レイヤー_1-2" data-name="レイヤー 1"><polygon class="cls-1" points="49.98 4.92 41.83 21.96 58.13 21.96 49.98 4.92"/><polygon class="cls-1" points="113.98 5.87 105.83 22.92 122.13 22.92 113.98 5.87"/><polygon class="cls-1" points="265.48 4.92 256.83 23.92 274.13 23.92 265.48 4.92"/><polygon class="cls-1" points="389.98 5.87 381.83 22.92 398.13 22.92 389.98 5.87"/><polygon class="cls-1" points="468.98 5.87 460.83 22.92 477.13 22.92 468.98 5.87"/><circle cx="179.13" cy="16.92" r="16" fill="#d7003a"/><path d="M0 .57h5.79v13.7h15.73V.57h5.79v33h-5.79V19.64H5.79v13.89H0zM47.47.33h5.37l14.5 33.2h-6.12l-3.34-8H42.29l-3.39 8H33zm8.29 20.11l-5.7-13.19-5.65 13.19zM78.93 20.53L65.84.57h6.87l9.19 14.55L91.22.57h6.64L84.77 20.39v13.14h-5.84zM110.86.33h5.37l14.5 33.2h-6.12l-3.34-8h-15.59l-3.39 8h-5.94zm8.29 20.11l-5.7-13.19-5.65 13.19zM141.66 5.93H131.2V.57H158v5.36h-10.5v27.6h-5.84zM161.67 17.14v-.09a17.24 17.24 0 0134.47-.1v.1a17.24 17.24 0 01-34.47.09zm28.4 0v-.09c0-6.41-4.66-11.73-11.21-11.73S167.75 10.55 167.75 17v.1c0 6.4 4.66 11.67 11.21 11.67s11.11-5.23 11.11-11.63zM217.29.57h5.79v16.57L238.76.57h7.16l-13.75 14.17 14.36 18.79h-7.06l-11.25-14.84-5.14 5.31v9.56h-5.79zM263.16.33h5.37L283 33.53h-6.12l-3.34-8H258l-3.39 8h-5.93zm8.29 20.11l-5.7-13.19-5.65 13.19zM288.69.57h6.16l10 15.58 10-15.58h6.16v33h-5.79V9.89l-10.4 15.54h-.19L294.38 10v23.53h-5.69zM330.84.57h5.79v33h-5.79zM356.08 20.53L343 .57h6.87L359 15.12 368.37.57H375l-13.08 19.82v13.14h-5.84zM388 .33h5.36l14.51 33.2h-6.12l-3.35-8h-15.57l-3.39 8h-5.94zm8.28 20.11L390.6 7.25 385 20.44zM413.53.57h6.17l10 15.58 10-15.58h6.17v33h-5.79V9.89l-10.35 15.54h-.19L419.23 10v23.53h-5.7zM466.09.33h5.37L486 33.53h-6.12l-3.35-8h-15.62l-3.39 8h-5.93zm8.29 20.11l-5.7-13.19L463 20.44z"/></g></g></svg>