<svg version="1.1" id="レイヤー_1" xmlns="http://www.w3.org/2000/svg" x="0px" y="0px" viewBox="0 0 491.61 34.09" xml:space="preserve"><style type="text/css">.st0{fill:#222}</style><g id="レイヤー_2_1_"><g id="レイヤー_1-2"><path class="st0" d="M0 .57h5.79v13.7h15.73V.57h5.79v33h-5.79V19.64H5.79v13.89H0V.57z"/><path class="st0" d="M47.47.33h5.37l14.5 33.2h-6.12l-3.34-8H42.29l-3.39 8H33L47.47.33zm8.29 20.11l-5.7-13.19-5.65 13.19h11.35z"/><path class="st0" d="M80.81 20.53L67.72.57h6.88l9.18 14.55L93.1.57h6.64L86.65 20.39v13.14h-5.84v-13z"/><path class="st0" d="M114.63.33H120l14.51 33.2h-6.12l-3.35-8h-15.59l-3.39 8h-5.94L114.63.33zm8.28 20.11l-5.69-13.19-5.66 13.19h11.35z"/><path class="st0" d="M147.31 5.93h-10.45V.57h26.74v5.36h-10.45v27.6h-5.84V5.93z"/><path class="st0" d="M168.27 17.14v-.09c.2-9.519 8.079-17.074 17.598-16.874 9.199.193 16.625 7.576 16.872 16.774v.1c-.203 9.519-8.085 17.071-17.604 16.868-9.198-.196-16.622-7.581-16.866-16.778zm28.39 0v-.09c0-6.41-4.66-11.73-11.2-11.73S174.34 10.55 174.34 17v.1c0 6.4 4.66 11.67 11.21 11.67s11.11-5.23 11.11-11.63z"/><path class="st0" d="M223.89.57h5.79v16.57L245.36.57h7.16l-13.75 14.17 14.36 18.79h-7.07l-11.25-14.84-5.13 5.31v9.56h-5.79V.57z"/><path class="st0" d="M269.75.33h5.37l14.51 33.2h-6.13l-3.34-8h-15.59l-3.39 8h-5.93l14.5-33.2zM278 20.44l-5.7-13.19-5.65 13.19H278z"/><path class="st0" d="M295.28.57h6.17l10 15.58 10-15.58h6.17v33h-5.79V9.89l-10.35 15.54h-.19L301 10v23.53h-5.7L295.28.57z"/><path class="st0" d="M336.49.57h5.79v33h-5.79v-33z"/><path class="st0" d="M360.79 20.53L347.7.57h6.87l9.18 14.55L373.08.57h6.64l-13.09 19.82v13.14h-5.84v-13z"/><path class="st0" d="M393.66.33H399l14.5 33.2h-6.12l-3.35-8h-15.55l-3.39 8h-5.94L393.66.33zm8.28 20.11l-5.69-13.19-5.65 13.19h11.34z"/><path class="st0" d="M419.18.57h6.17l10 15.58 10-15.58h6.17v33h-5.79V9.89l-10.35 15.54h-.19L424.88 10v23.53h-5.7V.57z"/><path class="st0" d="M471.74.33h5.37l14.5 33.2h-6.12l-3.34-8h-15.59l-3.39 8h-5.93l14.5-33.2zM480 20.44l-5.7-13.19-5.65 13.19H480z"/></g></g></svg>